<?xml version="1.0" encoding="UTF-8" standalone="no"?>
<svg width="497px" height="197px" viewBox="0 0 497 197" version="1.1" xmlns="http://www.w3.org/2000/svg" xmlns:xlink="http://www.w3.org/1999/xlink">
    <!-- Generator: Sketch 3.6.1 (26313) - http://www.bohemiancoding.com/sketch -->
    <title>bci-logo-svg</title>
    <desc>Created with Sketch.</desc>
    <defs></defs>
    <g id="Page-1" stroke="none" stroke-width="1" fill="none" fill-rule="evenodd">
        <g id="bci-logo-svg">
            <g id="bci-logo" transform="translate(187.000000, 6.000000)" fill="#1D1D1D">
                <path d="M34.527,74.435 C34.527,78.644 35.097,81.208 36.247,82.126 C37.401,83.022 40.629,83.486 45.963,83.486 L50.87,83.486 C84.526,83.486 101.367,71.806 101.367,48.453 C101.367,23.543 86.225,11.102 55.957,11.102 C47.839,11.102 42.404,11.879 39.606,13.414 C36.213,15.315 34.527,19.296 34.527,25.318 L34.527,74.435 Z M100.564,85.49 C133.067,90.853 149.295,107.681 149.295,135.941 C149.295,152.136 142.859,165.152 129.995,174.974 C117.105,184.812 100.382,189.706 79.83,189.706 C72.351,189.706 15.492,189.989 0.528,189.989 L0.528,0.583 C10.51,0.583 34.565,1.546 47.468,1.39 C116.872,0.583 137.044,16.486 137.044,46.673 C137.044,65.563 124.89,78.483 100.564,85.49 L100.564,85.49 Z M39.235,92.89 C36.082,92.89 34.527,94.149 34.527,96.642 L34.527,156.996 C34.527,171.745 44.546,179.132 64.634,179.132 C80.583,179.132 92.737,174.666 101.083,165.761 C108.47,157.892 112.139,147.428 112.139,134.271 C112.139,121.458 107.837,111.341 99.27,103.966 C90.666,96.583 78.352,92.89 62.263,92.89 L39.235,92.89 Z" id="Fill-4"></path>
                <path d="M228.147,66.218 C236.857,66.218 245.153,67.33 253.042,69.574 C263.582,72.561 268.84,76.791 268.84,82.256 C268.84,96.468 265.692,103.568 259.406,103.568 C256.306,103.568 253.182,101.002 249.966,95.864 C249.628,95.268 249.039,94.228 248.255,92.774 C240.583,79.593 232.698,73.009 224.563,73.009 C212.2,73.009 202.536,79.657 195.563,92.939 C190.306,103.082 187.682,113.55 187.682,124.369 C187.682,137.829 191.156,149.282 198.137,158.723 C205.503,168.688 215.73,174.423 228.844,175.945 C231.227,176.219 239.097,177.061 255.573,171.271 C259.297,169.965 262.5,168.059 266.012,166.394 C267.77,165.535 271.351,164.927 271.845,167.669 C272.378,170.607 269.828,173.759 267.901,175.645 C264.779,178.704 253.977,188.8 225.831,190.842 C224.579,190.947 223.358,190.969 222.138,190.969 C200.85,190.969 184.25,184.46 172.349,171.431 C161.932,160.101 156.721,146.163 156.721,129.554 C156.721,112.021 162.608,97.415 174.419,85.768 C187.458,72.743 205.385,66.218 228.147,66.218 L228.147,66.218 Z" id="Fill-5"></path>
                <g id="igroup" transform="translate(281.000000, 30.000000)">
                    <path d="M0.311,159.9 L28.309,159.9 L28.124,45.748 C28.124,45.748 23.061,45.634 14.735,44.993 C8.653,44.506 0.316,44.058 0.316,44.058" id="Fill-6"></path>
                    <path d="M0.353,15.887 C0.353,7.397 6.409,0.512 13.903,0.512 C21.396,0.512 27.452,7.397 27.452,15.887 C27.452,24.343 21.396,31.224 13.903,31.224 C6.409,31.224 0.353,24.343 0.353,15.887 L0.353,15.887 Z" id="Fill-7"></path>
                </g>
            </g>
            <g id="bci-iso">
                <path d="M1.337,169.931 C7.815,150.667 26.271,139.9 42.304,129.436 C54.142,121.71 66.22,114.378 78.177,106.852 C82.491,104.147 86.726,101.366 91.011,98.662 C101.183,92.247 109.273,82.944 115.147,72.565 C118.122,67.278 120.577,61.801 122.956,56.227 C126.265,48.536 128.924,38.477 136.996,34.505 C142.769,31.686 150.283,33.22 154.656,37.873 C158.926,42.42 159.914,49.077 158.764,55.027 C156.347,67.608 149.095,78.972 139.95,87.746 C134.578,92.897 128.51,96.709 122.162,100.491 C113.764,105.491 105.346,110.435 96.89,115.346 C85.771,121.85 74.77,128.033 64.374,135.653 C53.893,143.328 44.286,151.762 35.289,161.098 C28.621,168.017 24.436,176.262 20.02,184.701 C18.419,187.765 16.885,192.194 13.994,194.324 C11.965,195.778 8.627,196.184 6.455,194.878 C-1.292,190.199 -0.742,177.284 1.337,169.931 L1.337,169.931 Z" id="Fill-1" fill="#EF2839"></path>
                <path d="M139.717,175.344 C134.443,171.3 136.277,163.963 135.918,158.212 C135.487,151.348 134.228,143.788 131.206,137.554 C127.922,130.814 120.506,129.305 114.635,125.687 C109.108,122.276 109.556,115.439 115.198,112.413 C126.883,106.171 140.398,113.698 146.656,123.929 C150.574,130.332 153.017,137.731 155.349,144.823 C157.741,152.083 160.886,161.444 157.137,168.718 C154.179,174.47 145.63,179.866 139.717,175.344 L139.717,175.344 Z" id="Fill-2" fill="#019C4D"></path>
                <path d="M95.5,114.509 C68.747,103.864 40.88,83.414 37.918,52.339 C37.17,44.436 38.492,36.424 40.568,28.791 C42.313,22.372 44.308,15.504 47.503,9.646 C53.069,-0.572 66.452,-2.825 75.903,3.621 C86.996,11.206 80.032,24.899 77.352,35.062 C75.56,41.854 73.984,48.84 72.851,55.779 C71.731,62.655 71.55,69.733 73.828,76.407 C75.7,81.922 79.097,86.904 83.556,90.653 C88.59,94.862 95.064,97.043 100.933,99.79 C105.009,101.691 113.241,104.485 110.629,110.583 C108.156,116.331 100.474,115.828 95.5,114.509 L95.5,114.509 Z" id="Fill-3" fill="#0471B9"></path>
                <path d="M34.592,189.861 C35.273,192.427 37.635,195.309 44.803,195.74 C57.295,196.492 70.286,194.738 83.036,192.084 C104.286,187.68 113.156,181.941 113.156,181.941 C113.156,181.941 126.143,175.112 125.45,156.407 C124.732,137.689 112.125,129.089 112.125,129.089 C112.125,129.089 107.062,125.705 98.702,128.591 C93.006,130.598 76.9,139.634 66.486,146.011 C60.845,149.451 55.27,154.074 50.614,158.752 C45.952,163.431 40.504,169.58 36.802,178.121 C36.21,179.452 35.762,180.666 35.442,181.777 C34.736,184.143 33.928,187.406 34.592,189.861 L34.592,189.861 Z" id="Fill-8" fill="#FFD602"></path>
            </g>
        </g>
    </g>
</svg>